<svg width="85.789mm" height="46.546mm" version="1.1" viewBox="0 0 85.789 46.546" xmlns="http://www.w3.org/2000/svg">
 <defs>
  <marker id="marker1555" overflow="visible" orient="auto">
   <path transform="matrix(-.8 0 0 -.8 -10 0)" d="m0 0 5-5-17.5 5 17.5 5z" fill-rule="evenodd" stroke="#000" stroke-width="1pt"/>
  </marker>
  <marker id="marker1513" overflow="visible" orient="auto">
   <path transform="matrix(-.8 0 0 -.8 -10 0)" d="m0 0 5-5-17.5 5 17.5 5z" fill-rule="evenodd" stroke="#000" stroke-width="1pt"/>
  </marker>
  <marker id="marker1477" overflow="visible" orient="auto">
   <path transform="matrix(-.8 0 0 -.8 -10 0)" d="m0 0 5-5-17.5 5 17.5 5z" fill-rule="evenodd" stroke="#000" stroke-width="1pt"/>
  </marker>
  <marker id="Arrow1Lend" overflow="visible" orient="auto">
   <path transform="matrix(-.8 0 0 -.8 -10 0)" d="m0 0 5-5-17.5 5 17.5 5z" fill-rule="evenodd" stroke="#000" stroke-width="1pt"/>
  </marker>
 </defs>
 <g transform="translate(-.17009 -.094494)">
  <text x="57.274021" y="18.464136" fill="#000000" font-family="Calibri" font-size="5.6444px" letter-spacing="0px" stroke-width=".26458" word-spacing="0px" style="font-feature-settings:normal;font-variant-caps:normal;font-variant-ligatures:normal;font-variant-numeric:normal;line-height:1.25" xml:space="preserve"><tspan x="57.274021" y="18.464136">Organisation</tspan></text>
  <g transform="matrix(.52917 0 0 .52917 65.403 .094494)">
   <path d="m0 0h24v24h-24z" fill="none"/>
   <path d="m6.5 10h-2v7h2zm6 0h-2v7h2zm8.5 9h-19v2h19zm-2.5-9h-2v7h2zm-7-6.74 5.21 2.74h-10.42l5.21-2.74m0-2.26-9.5 5v2h19v-2z"/>
  </g>
  <text x="1.0286076" y="18.464136" fill="#000000" font-family="Calibri" font-size="5.6444px" letter-spacing="0px" stroke-width=".26458" word-spacing="0px" style="font-feature-settings:normal;font-variant-caps:normal;font-variant-ligatures:normal;font-variant-numeric:normal;line-height:1.25" xml:space="preserve"><tspan x="1.0286076" y="18.464136" font-family="Calibri" font-size="5.6444px" stroke-width=".26458" style="font-feature-settings:normal;font-variant-caps:normal;font-variant-ligatures:normal;font-variant-numeric:normal">User</tspan></text>
  <g transform="matrix(.52917 0 0 .52917 .17009 .18899)">
   <path d="m0 0h24v24h-24z" fill="none"/>
   <path d="m12 2c-5.52 0-10 4.48-10 10s4.48 10 10 10 10-4.48 10-10-4.48-10-10-10zm-4.93 16.28c0.43-0.9 3.05-1.78 4.93-1.78s4.51 0.88 4.93 1.78c-1.36 1.08-3.07 1.72-4.93 1.72s-3.57-0.64-4.93-1.72zm11.29-1.45c-1.43-1.74-4.9-2.33-6.36-2.33s-4.93 0.59-6.36 2.33c-1.02-1.34-1.64-3.01-1.64-4.83 0-4.41 3.59-8 8-8s8 3.59 8 8c0 1.82-0.62 3.49-1.64 4.83zm-6.36-10.83c-1.94 0-3.5 1.56-3.5 3.5s1.56 3.5 3.5 3.5 3.5-1.56 3.5-3.5-1.56-3.5-3.5-3.5zm0 5c-0.83 0-1.5-0.67-1.5-1.5s0.67-1.5 1.5-1.5 1.5 0.67 1.5 1.5-0.67 1.5-1.5 1.5z"/>
  </g>
  <g transform="translate(0 1.5107)">
   <g transform="matrix(.26458 0 0 .26458 31.977 2.5135)">
    <path d="m0 0h24v24h-24z" fill="none"/>
    <path d="m22 19h-6v-4h-2.68c-1.14 2.42-3.6 4-6.32 4-3.86 0-7-3.14-7-7s3.14-7 7-7c2.72 0 5.17 1.58 6.32 4h10.68v6h-2zm-4-2h2v-4h2v-2h-10.06l-0.23-0.67c-0.7-1.99-2.6-3.33-4.71-3.33-2.76 0-5 2.24-5 5s2.24 5 5 5c2.11 0 4.01-1.34 4.71-3.33l0.23-0.67h6.06zm-11-2c-1.65 0-3-1.35-3-3s1.35-3 3-3 3 1.35 3 3-1.35 3-3 3zm0-4c-0.55 0-1 0.45-1 1s0.45 1 1 1 1-0.45 1-1-0.45-1-1-1z"/>
   </g>
   <text x="28.442709" y="13.990325" fill="#000000" font-family="Calibri" font-size="1.4111px" letter-spacing="0px" stroke-width=".26458" word-spacing="0px" style="line-height:1.25" xml:space="preserve"><tspan x="28.442709" y="13.990325" font-family="Calibri" font-size="4.2333px" stroke-width=".26458" style="font-feature-settings:normal;font-variant-caps:normal;font-variant-ligatures:normal;font-variant-numeric:normal">Account</tspan></text>
  </g>
  <g transform="translate(-.068261 27.17)">
   <text x="57.274021" y="18.464136" fill="#000000" font-family="Calibri" font-size="5.6444px" letter-spacing="0px" stroke-width=".26458" word-spacing="0px" style="font-feature-settings:normal;font-variant-caps:normal;font-variant-ligatures:normal;font-variant-numeric:normal;line-height:1.25" xml:space="preserve"><tspan x="57.274021" y="18.464136">Organisation</tspan></text>
   <g transform="matrix(.52917 0 0 .52917 65.403 .094494)">
    <path d="m0 0h24v24h-24z" fill="none"/>
    <path d="m6.5 10h-2v7h2zm6 0h-2v7h2zm8.5 9h-19v2h19zm-2.5-9h-2v7h2zm-7-6.74 5.21 2.74h-10.42l5.21-2.74m0-2.26-9.5 5v2h19v-2z"/>
   </g>
  </g>
  <g transform="translate(-.068261 28.681)">
   <g transform="matrix(.26458 0 0 .26458 31.977 2.5135)">
    <path d="m0 0h24v24h-24z" fill="none"/>
    <path d="m22 19h-6v-4h-2.68c-1.14 2.42-3.6 4-6.32 4-3.86 0-7-3.14-7-7s3.14-7 7-7c2.72 0 5.17 1.58 6.32 4h10.68v6h-2zm-4-2h2v-4h2v-2h-10.06l-0.23-0.67c-0.7-1.99-2.6-3.33-4.71-3.33-2.76 0-5 2.24-5 5s2.24 5 5 5c2.11 0 4.01-1.34 4.71-3.33l0.23-0.67h6.06zm-11-2c-1.65 0-3-1.35-3-3s1.35-3 3-3 3 1.35 3 3-1.35 3-3 3zm0-4c-0.55 0-1 0.45-1 1s0.45 1 1 1 1-0.45 1-1-0.45-1-1-1z"/>
   </g>
   <text x="28.442709" y="13.990325" fill="#000000" font-family="Calibri" font-size="1.4111px" letter-spacing="0px" stroke-width=".26458" word-spacing="0px" style="line-height:1.25" xml:space="preserve"><tspan x="28.442709" y="13.990325" font-family="Calibri" font-size="4.2333px" stroke-width=".26458" style="font-feature-settings:normal;font-variant-caps:normal;font-variant-ligatures:normal;font-variant-numeric:normal">Account</tspan></text>
  </g>
  <g fill="none" stroke="#000">
   <path d="m14.458 8.2262h13.135" marker-end="url(#Arrow1Lend)" stroke-width=".265"/>
   <g stroke-width=".26458px">
    <path d="m14.458 20.699 12.568 13.891" marker-end="url(#marker1477)"/>
    <path d="m43.278 7.6592h12.284" marker-end="url(#marker1513)"/>
    <path d="m43.562 34.968h12.757" marker-end="url(#marker1555)"/>
   </g>
  </g>
 </g>
</svg>
