<?xml version="1.0" encoding="UTF-8" standalone="no"?>
<!-- Created with Inkscape (http://www.inkscape.org/) -->

<svg
   xmlns:dc="http://purl.org/dc/elements/1.1/"
   xmlns:cc="http://creativecommons.org/ns#"
   xmlns:rdf="http://www.w3.org/1999/02/22-rdf-syntax-ns#"
   xmlns:svg="http://www.w3.org/2000/svg"
   xmlns="http://www.w3.org/2000/svg"
   xmlns:sodipodi="http://sodipodi.sourceforge.net/DTD/sodipodi-0.dtd"
   xmlns:inkscape="http://www.inkscape.org/namespaces/inkscape"
   width="75.279243mm"
   height="24.494471mm"
   viewBox="0 0 60.223395 19.595577"
   version="1.1"
   id="svg8"
   inkscape:version="0.92.4 (5da689c313, 2019-01-14)"
   sodipodi:docname="CreateWallet.svg">
  <defs
     id="defs2">
    <marker
       inkscape:isstock="true"
       style="overflow:visible"
       id="marker7815"
       refX="0"
       refY="0"
       orient="auto"
       inkscape:stockid="Arrow1Lend">
      <path
         transform="matrix(-0.8,0,0,-0.8,-10,0)"
         style="fill:#000000;fill-opacity:1;fill-rule:evenodd;stroke:#000000;stroke-width:1.00000003pt;stroke-opacity:1"
         d="M 0,0 5,-5 -12.5,0 5,5 Z"
         id="path7813"
         inkscape:connector-curvature="0" />
    </marker>
    <marker
       inkscape:isstock="true"
       style="overflow:visible"
       id="marker7679"
       refX="0"
       refY="0"
       orient="auto"
       inkscape:stockid="Arrow1Lstart">
      <path
         transform="matrix(0.8,0,0,0.8,10,0)"
         style="fill:#000000;fill-opacity:1;fill-rule:evenodd;stroke:#000000;stroke-width:1.00000003pt;stroke-opacity:1"
         d="M 0,0 5,-5 -12.5,0 5,5 Z"
         id="path7677"
         inkscape:connector-curvature="0" />
    </marker>
    <marker
       inkscape:isstock="true"
       style="overflow:visible"
       id="marker7561"
       refX="0"
       refY="0"
       orient="auto"
       inkscape:stockid="Arrow1Lend">
      <path
         transform="matrix(-0.8,0,0,-0.8,-10,0)"
         style="fill:#000000;fill-opacity:1;fill-rule:evenodd;stroke:#000000;stroke-width:1.00000003pt;stroke-opacity:1"
         d="M 0,0 5,-5 -12.5,0 5,5 Z"
         id="path7559"
         inkscape:connector-curvature="0" />
    </marker>
  </defs>
  <sodipodi:namedview
     id="base"
     pagecolor="#ffffff"
     bordercolor="#666666"
     borderopacity="1.0"
     inkscape:pageopacity="0.0"
     inkscape:pageshadow="2"
     inkscape:zoom="2.8"
     inkscape:cx="-47.110899"
     inkscape:cy="-41.664731"
     inkscape:document-units="mm"
     inkscape:current-layer="layer1"
     showgrid="false"
     inkscape:window-width="2560"
     inkscape:window-height="1377"
     inkscape:window-x="-8"
     inkscape:window-y="-8"
     inkscape:window-maximized="1"
     fit-margin-top="0"
     fit-margin-left="0"
     fit-margin-right="0"
     fit-margin-bottom="0"
     scale-x="0.8" />
  <metadata
     id="metadata5">
    <rdf:RDF>
      <cc:Work
         rdf:about="">
        <dc:format>image/svg+xml</dc:format>
        <dc:type
           rdf:resource="http://purl.org/dc/dcmitype/StillImage" />
        <dc:title></dc:title>
      </cc:Work>
    </rdf:RDF>
  </metadata>
  <g
     inkscape:label="Layer 1"
     inkscape:groupmode="layer"
     id="layer1"
     transform="translate(-34.156828,-14.232394)">
    <flowRoot
       xml:space="preserve"
       id="flowRoot2782"
       style="font-style:normal;font-variant:normal;font-weight:normal;font-stretch:normal;font-size:16px;line-height:1.25;font-family:Calibri;-inkscape-font-specification:'Calibri, Normal';font-variant-ligatures:normal;font-variant-caps:normal;font-variant-numeric:normal;font-feature-settings:normal;text-align:start;letter-spacing:0px;word-spacing:0px;writing-mode:lr-tb;text-anchor:start;fill:#000000;fill-opacity:1;stroke:none"
       transform="matrix(0.26458333,0,0,0.26458333,0.17008822,0.1889881)"><flowRegion
         id="flowRegion2784"><rect
           id="rect2786"
           width="92.5"
           height="23.214285"
           x="188.21428"
           y="80.920731" /></flowRegion><flowPara
         id="flowPara2788" /></flowRoot>    <text
       xml:space="preserve"
       style="font-style:normal;font-variant:normal;font-weight:normal;font-stretch:normal;font-size:5.64444447px;line-height:1.25;font-family:Calibri;-inkscape-font-specification:'Calibri, Normal';font-variant-ligatures:normal;font-variant-caps:normal;font-variant-numeric:normal;font-feature-settings:normal;text-align:start;letter-spacing:0px;word-spacing:0px;writing-mode:lr-tb;text-anchor:start;fill:#000000;fill-opacity:1;stroke:none;stroke-width:0.26458332"
       x="35.136612"
       y="32.810844"
       id="text1015"><tspan
         sodipodi:role="line"
         id="tspan1013"
         x="35.136612"
         y="32.810844"
         style="font-style:normal;font-variant:normal;font-weight:normal;font-stretch:normal;font-size:5.64444447px;font-family:Calibri;-inkscape-font-specification:'Calibri, Normal';font-variant-ligatures:normal;font-variant-caps:normal;font-variant-numeric:normal;font-feature-settings:normal;text-align:start;writing-mode:lr-tb;text-anchor:start;stroke-width:0.26458332">Luke</tspan></text>
    <g
       style="fill:#000000"
       id="g1085"
       transform="matrix(0.52916667,0,0,0.52916667,34.156828,14.535696)">
      <path
         id="path1071"
         d="M 0,0 H 24 V 24 H 0 Z"
         inkscape:connector-curvature="0"
         style="fill:none" />
      <path
         id="path1073"
         d="M 12,2 C 6.48,2 2,6.48 2,12 2,17.52 6.48,22 12,22 17.52,22 22,17.52 22,12 22,6.48 17.52,2 12,2 Z M 7.07,18.28 C 7.5,17.38 10.12,16.5 12,16.5 c 1.88,0 4.51,0.88 4.93,1.78 C 15.57,19.36 13.86,20 12,20 10.14,20 8.43,19.36 7.07,18.28 Z M 18.36,16.83 C 16.93,15.09 13.46,14.5 12,14.5 10.54,14.5 7.07,15.09 5.64,16.83 4.62,15.49 4,13.82 4,12 4,7.59 7.59,4 12,4 c 4.41,0 8,3.59 8,8 0,1.82 -0.62,3.49 -1.64,4.83 z M 12,6 C 10.06,6 8.5,7.56 8.5,9.5 8.5,11.44 10.06,13 12,13 13.94,13 15.5,11.44 15.5,9.5 15.5,7.56 13.94,6 12,6 Z m 0,5 C 11.17,11 10.5,10.33 10.5,9.5 10.5,8.67 11.17,8 12,8 c 0.83,0 1.5,0.67 1.5,1.5 0,0.83 -0.67,1.5 -1.5,1.5 z"
         inkscape:connector-curvature="0" />
    </g>
    <g
       id="g1133"
       transform="translate(33.675074,18.965312)">
      <text
         id="text1105"
         y="13.85669"
         x="30.242239"
         style="font-style:normal;font-variant:normal;font-weight:normal;font-stretch:normal;font-size:1.41111112px;line-height:1.25;font-family:Calibri;-inkscape-font-specification:Calibri;letter-spacing:0px;word-spacing:0px;fill:#000000;fill-opacity:1;stroke:none;stroke-width:0.26458332"
         xml:space="preserve"><tspan
           style="font-style:normal;font-variant:normal;font-weight:normal;font-stretch:normal;font-size:5.64444447px;font-family:Calibri;-inkscape-font-specification:'Calibri, Normal';font-variant-ligatures:normal;font-variant-caps:normal;font-variant-numeric:normal;font-feature-settings:normal;text-align:start;writing-mode:lr-tb;text-anchor:start;stroke-width:0.26458332"
           y="13.85669"
           x="30.242239"
           id="tspan1103"
           sodipodi:role="line">Digital Wallet</tspan></text>
    </g>
    <g
       style="fill:#000000"
       id="g8346"
       transform="matrix(0.52916667,0,0,0.52916667,73.035792,14.232394)">
      <path
         id="path8329"
         d="M 0,0 H 24 V 24 H 0 Z"
         inkscape:connector-curvature="0"
         style="fill:none" />
      <path
         id="path8331"
         d="M 21,7.28 V 5 C 21,3.9 20.1,3 19,3 H 5 C 3.89,3 3,3.9 3,5 v 14 c 0,1.1 0.89,2 2,2 h 14 c 1.1,0 2,-0.9 2,-2 V 16.72 C 21.59,16.37 22,15.74 22,15 V 9 C 22,8.26 21.59,7.63 21,7.28 Z M 20,9 v 6 H 13 V 9 Z M 5,19 V 5 h 14 v 2 h -6 c -1.1,0 -2,0.9 -2,2 v 6 c 0,1.1 0.9,2 2,2 h 6 v 2 z"
         inkscape:connector-curvature="0" />
      <circle
         id="circle8333"
         r="1.5"
         cy="12"
         cx="16" />
    </g>
    <g
       style="fill:#000000"
       id="g8380"
       transform="matrix(0.26458333,0,0,0.26458333,82.296209,23.492811)">
      <path
         id="path8366"
         d="M 0,0 H 24 V 24 H 0 Z"
         inkscape:connector-curvature="0"
         style="fill:none" />
      <path
         id="path8368"
         d="m 19,13 h -6 v 6 H 11 V 13 H 5 v -2 h 6 V 5 h 2 v 6 h 6 z"
         inkscape:connector-curvature="0" />
    </g>
    <path
       style="fill:none;stroke:#000000;stroke-width:0.26499999;stroke-linecap:butt;stroke-linejoin:miter;stroke-miterlimit:4;stroke-dasharray:none;stroke-opacity:1;marker-end:url(#marker7815)"
       d="M 62.694029,22.677673 H 48.519923"
       id="path9046"
       inkscape:connector-curvature="0" />
  </g>
</svg>
